# xmcd CD database file
#
# Track frame offsets:
#	150
#	11941
#	25247
#	45403
#	47768
#	48343
#	49201
#	49655
#	50158
#
# Disc length: 676 seconds
#
# Revision: 0
# Processed by: cddbd v1.5.1PL2 Copyright (c) Steve Scherf et al.
# Submitted via: CDex 1.50
#
DISCID=7802a209
DTITLE=Various Artist - ACMEC Summer Sampler
DYEAR=2005
DGENRE=Country
TTITLE0=Peter Denahy - Peppercorn Tree
TTITLE1=Dale Juner - Sweet Summer Rain
TTITLE2=Charlie Landsborough - He Still Holds You
TTITLE3=ACMEC Showcase
TTITLE4=Peter Denahy - Christmas Message
TTITLE5=Peter Denahay - Into Peppercorn Tree
TTITLE6=Dale Juner - Intro Sweet Summer Rain
TTITLE7=Dale Juner - Christmas Message
TTITLE8=Wolverines - Christmas Message
EXTD=YEAR: 2005
EXTT0=
EXTT1=
EXTT2=
EXTT3=
EXTT4=
EXTT5=
EXTT6=
EXTT7=
EXTT8=
PLAYORDER=
